<?xml version="1.0" encoding="UTF-8"?>
<svg width="108px" height="38px" viewBox="0 0 108 38" version="1.1" xmlns="http://www.w3.org/2000/svg" xmlns:xlink="http://www.w3.org/1999/xlink">
    <!-- Generator: Sketch 52.6 (67491) - http://www.bohemiancoding.com/sketch -->
    <title>IbagueJS blanco</title>
    <desc>Created with Sketch.</desc>
    <g id="IbagueJS-blanco" stroke="none" stroke-width="1" fill="none" fill-rule="evenodd">
        <path d="M89,38 C78.5065898,38 70,29.4934102 70,19 C70,8.50658975 78.5065898,0 89,0 C99.4934102,0 108,8.50658975 108,19 C108,29.4934102 99.4934102,38 89,38 Z M79.27,27.36 C79.27,27.06 79.01,26.8 78.71,26.8 C77.59,26.8 77.23,26.18 77.23,25.34 C77.23,24.4 77.39,22.52 77.39,21.56 C77.39,20.14 76.57,19.08 74.97,19.08 C76.57,19.08 77.39,18 77.39,16.6 C77.39,15.5 77.23,13.78 77.23,12.82 C77.23,11.98 77.59,11.36 78.71,11.36 C79.01,11.36 79.27,11.1 79.27,10.8 C79.27,10.5 79.01,10.24 78.71,10.24 C76.69,10.24 75.89,11.42 75.89,12.56 C75.89,14.58 76.13,15.32 76.13,16.76 C76.13,18.36 75.23,18.62 74.13,18.62 L73.99,18.62 C73.73,18.62 73.53,18.82 73.53,19.08 C73.53,19.34 73.73,19.54 73.99,19.54 L74.13,19.54 C75.23,19.54 76.13,19.8 76.13,21.38 C76.13,22.48 75.89,24.52 75.89,25.58 C75.89,26.74 76.69,27.92 78.71,27.92 C79.01,27.92 79.27,27.66 79.27,27.36 Z M80.49,24.8 C81.01,25.1 81.89,25.26 82.65,25.26 C85.43,25.26 86.45,23.38 86.45,20.94 L86.45,12.06 C86.45,11.7 86.15,11.38 85.77,11.38 C85.39,11.38 85.09,11.7 85.09,12.06 L85.09,20.94 C85.09,22.7 84.41,23.98 82.65,23.98 C82.11,23.98 81.65,23.9 81.17,23.66 C80.99,23.58 80.93,23.54 80.77,23.54 C80.41,23.54 80.11,23.84 80.11,24.2 C80.11,24.46 80.25,24.66 80.49,24.8 Z M96.91,14.08 C97.07,14.28 97.25,14.34 97.43,14.34 C97.79,14.34 98.07,14.06 98.07,13.7 C98.07,13.56 98.03,13.44 97.95,13.32 C97.11,12.06 95.57,11.26 93.67,11.26 C90.75,11.26 89.41,12.84 89.41,14.68 C89.41,19.42 96.97,17.66 96.97,21.4 C96.97,23.16 95.73,24.04 93.53,24.04 C91.77,24.04 90.61,23.18 89.97,22.14 C89.85,21.94 89.65,21.82 89.41,21.82 C89.05,21.82 88.77,22.1 88.77,22.46 C88.77,22.58 88.79,22.66 88.87,22.82 C89.55,24.12 91.25,25.28 93.53,25.28 C96.61,25.28 98.33,23.9 98.33,21.4 C98.33,16.58 90.77,18 90.77,14.68 C90.77,13.54 91.57,12.5 93.67,12.5 C95.35,12.5 96.31,13.34 96.91,14.08 Z M99.73,27.36 C99.73,27.66 99.99,27.92 100.29,27.92 C102.31,27.92 103.11,26.74 103.11,25.58 C103.11,24.52 102.87,22.48 102.87,21.38 C102.87,19.8 103.77,19.54 104.87,19.54 L105.01,19.54 C105.27,19.54 105.47,19.34 105.47,19.08 C105.47,18.82 105.27,18.62 105.01,18.62 L104.87,18.62 C103.77,18.62 102.87,18.36 102.87,16.76 C102.87,15.32 103.11,14.58 103.11,12.56 C103.11,11.42 102.31,10.24 100.29,10.24 C99.99,10.24 99.73,10.5 99.73,10.8 C99.73,11.1 99.99,11.36 100.29,11.36 C101.41,11.36 101.77,11.98 101.77,12.82 C101.77,13.78 101.61,15.5 101.61,16.6 C101.61,18 102.43,19.08 104.03,19.08 C102.43,19.08 101.61,20.14 101.61,21.56 C101.61,22.52 101.77,24.4 101.77,25.34 C101.77,26.18 101.41,26.8 100.29,26.8 C99.99,26.8 99.73,27.06 99.73,27.36 Z" id="Combined-Shape" fill="#FFFFFF" fill-rule="nonzero"></path>
        <text id="Ibagué" font-family="Bariol-Regular, Bariol" font-size="26" font-weight="normal" letter-spacing="-2.750275e-08" fill="#FFFFFF">
            <tspan x="-1.80699992" y="25">Ibagué</tspan>
        </text>
    </g>
</svg>